<?xml version="1.0" encoding="UTF-8"?> <svg xmlns="http://www.w3.org/2000/svg" width="1294" height="194" viewBox="0 0 1294 194" fill="none"> <path d="M307.575 157.045V33.6863H328.219V157.045H307.575Z" fill="black"></path> <path d="M383.552 157.045V53.0424H343.632V33.6863H444.116V53.0424H404.196V157.045H383.552Z" fill="black"></path> <path d="M432.471 127.227V111.031H483.875V127.227H432.471Z" fill="black"></path> <path d="M536.464 33.6863H566.706L605.591 157.045H584.35L575.787 130.321H527.304L518.82 157.045H497.579L536.477 33.6863H536.464ZM569.693 111.044L551.359 53.5602L533.278 111.044H569.693Z" fill="black"></path> <path d="M610.74 95.3664C610.74 57.079 632.844 31.1116 669.764 31.1116C698.121 31.1116 717.65 46.3654 725.27 70.5141L704.454 76.2492C699.661 60.2254 688.177 50.5473 669.764 50.5473C644.925 50.5473 632.499 68.3634 632.419 95.3531C632.419 122.343 644.925 140.159 669.764 140.159C688.177 140.159 699.661 130.481 704.454 114.457L725.27 120.192C717.65 144.354 698.121 159.595 669.764 159.595C632.844 159.595 610.74 133.64 610.74 95.3398V95.3664Z" fill="black"></path> <path d="M771.02 33.6863H801.262L840.147 157.045H818.906L810.343 130.321H761.86L753.377 157.045H732.135L771.034 33.6863H771.02ZM804.249 111.044L785.916 53.5602L767.834 111.044H804.249Z" fill="black"></path> <path d="M855.574 157.045V33.6863H894.897C896.955 33.6863 904.15 33.6863 909.886 34.3767C939.265 38.0541 955.289 64.0215 955.289 95.3656C955.289 126.71 939.265 152.677 909.886 156.355C904.23 157.045 896.862 157.045 894.897 157.045H855.574ZM876.563 137.596H894.897C898.322 137.596 904.323 137.516 908.518 136.653C925.989 133.308 933.45 114.722 933.45 95.3656C933.45 76.0095 925.564 57.3305 908.518 54.078C904.323 53.215 898.322 53.1354 894.897 53.1354H876.563V137.596Z" fill="black"></path> <path d="M1055.27 157.045H975.601V33.6863H1055.27V53.0424H996.245V83.4573H1044.99V102.813H996.245V137.676H1055.27V157.045Z" fill="black"></path> <path d="M1075.82 157.045V33.6863H1094.41L1137.06 121.068L1179.72 33.6863H1198.3V157.045H1179.03V77.9744L1141.16 157.045H1132.95L1095.16 77.9744V157.045H1075.81H1075.82Z" fill="black"></path> <path d="M1293.6 33.6863L1246.45 101.021H1246.44V156.859H1227.18V94.1841L1269.53 33.6863H1293.6Z" fill="black"></path> <path d="M105.395 194C84.6452 194 64.4527 188.225 46.995 177.299C37.6622 171.378 31.9137 160.651 31.9137 149.274V132.055H58.16V149.274C58.16 151.65 59.3282 154.04 60.9877 155.102C74.1971 163.359 89.5705 167.754 105.395 167.754C121.22 167.754 136.673 163.373 149.843 155.075C151.542 154.013 152.644 151.703 152.644 149.274V132.055H178.89V149.274C178.89 160.771 173.102 171.511 163.782 177.312C146.484 188.212 126.278 193.987 105.409 193.987L105.395 194Z" fill="black"></path> <path d="M102.463 95.5326L90.1824 118.632L0 70.9724V47.6601L90.1824 0L102.356 23.299L34.1188 59.3162L102.463 95.5326Z" fill="black"></path> <path d="M210.899 47.6601V70.9724L120.836 118.632L108.555 95.5326L176.78 59.3162L108.555 23.299L120.729 0L210.899 47.6601Z" fill="black"></path> </svg> 