<?xml version="1.0" encoding="UTF-8"?><svg id="b" xmlns="http://www.w3.org/2000/svg" viewBox="0 0 420 420"><path d="M210,417.2C95.75,417.2,2.8,324.25,2.8,210S95.75,2.8,210,2.8s207.2,92.95,207.2,207.2-92.95,207.2-207.2,207.2ZM210,33.12c-97.53,0-176.88,79.35-176.88,176.88s79.35,176.88,176.88,176.88,176.88-79.35,176.88-176.88S307.53,33.12,210,33.12Z" style="fill:#000; stroke-width:0px;"/><path d="M61.28,350.25l-10.16-11.56,2.69-2.37,7.79,8.86,4.71-4.14-7.33-8.33,2.59-2.28,7.32,8.33,4.94-4.34-7.79-8.86,2.69-2.37,10.16,11.56-17.62,15.49Z" style="fill:#fff; stroke-width:0px;"/><path d="M65.39,319.14l-24.5,5.45-2.07-3.13,14.6-20.45,2.31,3.49-3.58,5.03,4.94,7.46,6.01-1.37,2.29,3.51ZM49.91,312.22l-6.22,8.27,10.06-2.48-3.83-5.79Z" style="fill:#fff; stroke-width:0px;"/><path d="M29.46,305.88l-4.41-9.12c-1.78-3.72-.4-7.43,2.87-8.99,2.78-1.33,5.46-.64,6.77.7-.29-2.17,1.01-3.72,3.51-5.18,2.82-1.65,3.89-1.97,4.87-3.34l1.79,3.75c-.87.98-2.03,1.5-4.23,2.73-2.86,1.63-4.14,2.76-2.36,6.48l1.81,3.78,8.98-4.3,1.59,3.33-21.2,10.16ZM34.83,293.12c-1-2.09-2.7-3.31-5.03-2.2-2.36,1.13-2.47,3.23-1.47,5.31l2.38,4.96,6.5-3.12-2.38-4.96Z" style="fill:#fff; stroke-width:0px;"/><path d="M18.24,280.53l-1.23-3.69,18.76-6.27-3.29-9.86,3.5-1.17,4.53,13.54-22.25,7.44Z" style="fill:#fff; stroke-width:0px;"/><path d="M24.61,252.67l-11.82,11.47-.87-3.96,9.03-8.55-11.86-4.28-.8-3.63,15.54,5.42,9.23-2.04.78,3.54-9.23,2.04Z" style="fill:#fff; stroke-width:0px;"/><path d="M29.2,221.49l-23.46-8.89v-3.75s23.41-9.07,23.41-9.07l.02,4.19-5.76,2.23.03,8.95,5.77,2.16-.02,4.19ZM20.06,207.22l-9.74,3.49,9.77,3.45-.03-6.94Z" style="fill:#fff; stroke-width:0px;"/><path d="M17.89,194.46c-6.84-.97-11.33-6.23-10.43-12.74.79-5.78,5.02-8.92,9.83-8.97l-.57,4.18c-2.55.12-5.19,2.03-5.65,5.45-.58,4.22,2.85,7.36,7.43,7.99,4.48.62,8.43-1.52,8.99-5.6.49-3.59-1.76-6.13-4.06-6.92l.57-4.19c4.48,1.39,7.9,5.55,7.08,11.53-.83,6.04-6.45,10.21-13.18,9.25Z" style="fill:#fff; stroke-width:0px;"/><path d="M22.32,166.2c-6.62-1.98-10.28-7.84-8.43-14.14,1.64-5.6,6.28-8.08,11.05-7.42l-1.19,4.05c-2.54-.26-5.43,1.24-6.4,4.55-1.2,4.08,1.72,7.7,6.16,9,4.34,1.27,8.56-.25,9.72-4.21,1.02-3.47-.83-6.32-2.99-7.44l1.19-4.05c4.22,2.04,6.99,6.66,5.29,12.45-1.72,5.86-7.89,9.15-14.41,7.2Z" style="fill:#fff; stroke-width:0px;"/><path d="M20.72,132.97l6.27-14.05,3.28,1.46-4.81,10.77,5.72,2.55,4.52-10.13,3.15,1.41-4.52,10.13,6,2.68,4.81-10.77,3.28,1.46-6.27,14.05-21.42-9.56Z" style="fill:#fff; stroke-width:0px;"/><path d="M44.67,119.97l2.16-3.55c2.42.8,4.66,0,6.25-2.6,1.51-2.49.75-4.8-.68-5.67-1.52-.92-3.1-.58-5.04,1.96-4.2,5.49-7.83,5.99-10.53,4.36-3.24-1.97-4.05-6.58-1.52-10.73,2.75-4.53,6.86-5.88,10.92-3.65l-2.05,3.38c-2.18-1.13-4.46,0-5.79,2.17-1.43,2.35-.75,4.4.51,5.17,1.58.96,3.5-.07,5.28-2.37,4.15-5.36,7.53-5.62,10.43-3.87,3.67,2.23,4.06,6.74,1.46,11.04-2.42,3.98-6.89,6.64-11.38,4.34Z" style="fill:#fff; stroke-width:0px;"/><path d="M57.96,98.93l2.61-3.24c2.29,1.12,4.62.63,6.54-1.75,1.83-2.27,1.38-4.65.08-5.71-1.38-1.12-2.99-.99-5.25,1.28-4.89,4.88-8.56,4.89-11.01,2.92-2.95-2.38-3.14-7.05-.09-10.84,3.33-4.12,7.58-4.91,11.31-2.16l-2.48,3.08c-2.01-1.41-4.43-.6-6.03,1.38-1.72,2.14-1.33,4.27-.18,5.19,1.43,1.16,3.47.39,5.54-1.64,4.83-4.76,8.21-4.57,10.85-2.45,3.34,2.69,3.13,7.22-.03,11.13-2.93,3.62-7.71,5.66-11.86,2.79Z" style="fill:#fff; stroke-width:0px;"/><path d="M87.74,76.25l-7.75-23.87,2.92-2.36,21.74,12.59-3.26,2.63-5.35-3.09-6.96,5.63,1.93,5.85-3.28,2.61ZM93.16,60.19l-8.82-5.41,3.42,9.78,5.39-4.37Z" style="fill:#fff; stroke-width:0px;"/><path d="M103.49,42.07l9.15,15.43-3.03,1.79-11.97-20.19,3.89-2.31,18.81,10.36-9.44-15.92,3.03-1.79,11.99,20.21-4.2,2.45-18.23-10.04Z" style="fill:#fff; stroke-width:0px;"/><path d="M131.15,46.87l-.63-25.09,3.47-1.43,17.25,18.27-3.88,1.6-4.24-4.49-8.28,3.41.18,6.16-3.89,1.57ZM140.92,33.02l-6.91-7.7.5,10.35,6.42-2.64Z" style="fill:#fff; stroke-width:0px;"/><path d="M150.94,14.31l3.75-1.02,5.17,19.09,10.03-2.71.96,3.56-13.79,3.73-6.13-22.65Z" style="fill:#fff; stroke-width:0px;"/><path d="M173.38,20.58c-.95-6.98,3.3-12.56,9.42-13.39,6.11-.83,11.7,3.45,12.65,10.46.95,6.98-3.3,12.56-9.42,13.39-6.11.83-11.7-3.45-12.65-10.46ZM191.64,18.27c-.67-4.92-4.15-8.17-8.37-7.59-4.19.57-6.65,4.59-5.99,9.47.65,4.78,4.08,7.9,8.24,7.34,4.25-.58,6.77-4.47,6.12-9.22Z" style="fill:#fff; stroke-width:0px;"/><path d="M202.91,17.26c.18-6.91,4.87-11.97,11.44-11.84,5.83.12,9.44,3.95,10.05,8.72l-4.22-.09c-.42-2.52-2.62-4.92-6.07-4.99-4.26-.09-6.98,3.68-7.08,8.3-.09,4.53,2.51,8.23,6.64,8.29,2.78.02,5.76-1.32,6.74-4.99l-6.7-.14.07-3.49,10.56.22-.25,12.07-3.22-.07-.2-3.46c-1.56,2.38-4.33,3.53-7.15,3.48-6.23-.13-10.79-5.22-10.62-12.02Z" style="fill:#fff; stroke-width:0px;"/><path d="M233.14,21.09l2.45-14.1,3.63.63-2.45,14.1c-.66,3.8,1.26,6.28,4.72,6.88,3.4.59,6.11-1.08,6.77-4.88l2.45-14.1,3.63.63-2.45,14.1c-.99,5.68-5.31,8.64-10.99,7.65-5.68-.99-8.76-5.23-7.77-10.91Z" style="fill:#fff; stroke-width:0px;"/><path d="M265.15,13.07l14.67,4.66-1.09,3.42-11.25-3.57-1.9,5.97,10.58,3.36-1.04,3.29-10.58-3.36-1.99,6.26,11.25,3.57-1.09,3.42-14.67-4.65,7.1-22.37Z" style="fill:#fff; stroke-width:0px;"/><path d="M289.36,47.01l19.3-16.04,3.27,1.84-3.64,24.86-3.66-2.05.89-6.11-7.81-4.38-4.72,3.96-3.64-2.08ZM306.29,46.09l1.76-10.2-7.81,6.8,6.05,3.39Z" style="fill:#fff; stroke-width:0px;"/><path d="M316.15,54.31l3.32,2.5c-1.04,2.33-.47,4.64,1.96,6.48,2.33,1.75,4.7,1.23,5.71-.11,1.07-1.42.89-3.02-1.45-5.21-5.04-4.73-5.18-8.39-3.28-10.91,2.28-3.03,6.95-3.37,10.83-.44,4.23,3.19,5.16,7.41,2.54,11.23l-3.16-2.38c1.34-2.06.45-4.44-1.58-5.98-2.2-1.65-4.31-1.19-5.2-.01-1.11,1.47-.28,3.48,1.82,5.49,4.92,4.67,4.84,8.06,2.8,10.76-2.58,3.43-7.12,3.37-11.13.34-3.72-2.81-5.92-7.52-3.18-11.76Z" style="fill:#fff; stroke-width:0px;"/><path d="M335.73,69.62l2.96,2.92c-1.34,2.17-1.09,4.54,1.09,6.68,2.07,2.05,4.49,1.84,5.67.65,1.25-1.26,1.29-2.88-.75-5.35-4.37-5.35-4.02-9.01-1.8-11.25,2.66-2.7,7.33-2.42,10.79,1,3.77,3.72,4.13,8.03,1.02,11.47l-2.81-2.78c1.6-1.86,1.04-4.35-.77-6.14-1.96-1.93-4.11-1.75-5.15-.7-1.29,1.31-.74,3.42,1.08,5.68,4.25,5.28,3.73,8.63,1.35,11.04-3.02,3.05-7.5,2.39-11.08-1.14-3.31-3.28-4.86-8.24-1.59-12.08Z" style="fill:#fff; stroke-width:0px;"/><path d="M356.78,84.6c5.61-4.25,12.56-3.3,16.29,1.61,3.73,4.91,2.75,11.89-2.89,16.16-5.61,4.25-12.56,3.3-16.29-1.61-3.73-4.91-2.75-11.89,2.89-16.16ZM367.76,99.37c3.96-3,5.07-7.63,2.5-11.02-2.55-3.36-7.27-3.53-11.2-.55-3.85,2.92-4.87,7.44-2.34,10.78,2.59,3.42,7.22,3.7,11.04.8Z" style="fill:#fff; stroke-width:0px;"/><path d="M374.14,108.66c6.08-3.27,12.81-1.7,15.95,4.07,2.79,5.13,1.25,10.16-2.6,13.05l-2.02-3.71c1.98-1.61,2.97-4.71,1.32-7.74-2.03-3.74-6.66-4.24-10.72-2.03-3.98,2.16-5.89,6.22-3.92,9.84,1.73,3.18,5.05,3.89,7.37,3.17l2.02,3.71c-4.43,1.53-9.65.21-12.54-5.09-2.91-5.36-.86-12.05,5.13-15.27Z" style="fill:#fff; stroke-width:0px;"/><path d="M398.48,130.8l1.46,3.57-21.72,8.89-1.46-3.57,21.72-8.89Z" style="fill:#fff; stroke-width:0px;"/><path d="M380.73,148.92l25.01,2.05,1.05,3.6-20,15.2-1.17-4.02,4.91-3.74-2.51-8.59-6.14-.47-1.14-4.03ZM393.46,160.11l8.39-6.05-10.34-.61,1.94,6.66Z" style="fill:#fff; stroke-width:0px;"/><path d="M408.03,175.47l-1.33-8.01,3.4-.6,3.24,19.52-3.4.6-1.29-7.98-19.78,3.25-.59-3.54,19.75-3.25Z" style="fill:#fff; stroke-width:0px;"/><path d="M413.91,194.64l.26,3.85-23.42,1.56-.25-3.85,23.42-1.56Z" style="fill:#fff; stroke-width:0px;"/><path d="M403.07,207.75c7.03.32,11.76,5.51,11.48,11.67-.28,6.16-5.5,10.89-12.57,10.57-7.03-.32-11.76-5.51-11.48-11.67.28-6.16,5.5-10.89,12.57-10.57ZM402.06,226.13c4.96.23,8.78-2.62,8.97-6.87.19-4.22-3.32-7.37-8.24-7.59-4.82-.22-8.51,2.6-8.7,6.78-.2,4.29,3.18,7.46,7.97,7.68Z" style="fill:#fff; stroke-width:0px;"/><path d="M406.23,243.36l-17.58-3.55.7-3.45,23.01,4.64-.9,4.44-20.3,7.02,18.14,3.66-.7,3.45-23.04-4.65,1-4.76,19.67-6.8Z" style="fill:#fff; stroke-width:0px;"/><path d="M400.55,284.96l-1.91,4.14-19.73-1,13.67,14.16-1.84,3.99-21.32-9.82,1.49-3.23,15.22,7.01-12.52-12.89,1.31-2.83,17.97,1.05-15.23-7.01,1.56-3.38,21.32,9.82Z" style="fill:#fff; stroke-width:0px;"/><path d="M384.79,316.29l-8.43,12.87-3-1.97,6.46-9.87-5.24-3.44-6.08,9.28-2.89-1.89,6.08-9.29-5.5-3.6-6.46,9.87-3-1.96,8.43-12.87,19.63,12.86Z" style="fill:#fff; stroke-width:0px;"/><path d="M370.14,337.66l-3.04,3.4-18.56-6.77,8.9,17.55-2.93,3.27-17.48-15.66,2.37-2.65,12.48,11.18-8.17-16,2.08-2.32,16.87,6.29-12.48-11.18,2.48-2.77,17.48,15.66Z" style="fill:#fff; stroke-width:0px;"/><path d="M345.78,363.06l-7.5,6.13c-2.93,2.4-6.62,2.6-9.08-.42-1.46-1.79-1.39-3.97-.66-5.52-2.34.79-5.29,0-7.04-2.21-2.51-3.18-2.07-6.83,1.17-9.48l8.23-6.72,14.89,18.23ZM325.46,353.86c-1.58,1.29-1.87,3.22-.51,4.88,1.27,1.56,3.36,1.84,4.95.55l4.85-3.97-4.43-5.43-4.86,3.97ZM332.17,361.66c-1.25,1.02-1.44,2.91-.33,4.26,1.15,1.4,2.88,1.89,4.49.57l4.57-3.73-4.03-4.93-4.7,3.84Z" style="fill:#fff; stroke-width:0px;"/><path d="M323.92,379.87l-13.07,8.11-1.89-3.05,10.03-6.22-3.31-5.33-9.43,5.85-1.82-2.94,9.43-5.85-3.46-5.58-10.03,6.22-1.89-3.05,13.08-8.11,12.37,19.94Z" style="fill:#fff; stroke-width:0px;"/><path d="M301.9,392.75l-9.21,4.2c-3.76,1.7-7.44.23-8.93-3.07-1.27-2.81-.52-5.47.85-6.75-2.17.25-3.69-1.09-5.1-3.62-1.58-2.85-1.89-3.93-3.23-4.94l3.79-1.71c.96.89,1.45,2.07,2.64,4.29,1.57,2.9,2.67,4.2,6.43,2.5l3.82-1.73-4.1-9.07,3.36-1.52,9.68,21.42ZM289.26,387.09c-2.11.95-3.37,2.63-2.31,4.98,1.08,2.38,3.17,2.54,5.28,1.59l5.01-2.27-2.97-6.57-5.01,2.27Z" style="fill:#fff; stroke-width:0px;"/><path d="M272.9,387.55l-3.98,1.2c-1.26-2.21-3.46-3.13-6.38-2.25-2.79.84-3.77,3.06-3.29,4.66.51,1.7,1.91,2.51,5.05,1.91,6.79-1.27,9.83.79,10.73,3.81,1.09,3.63-1.39,7.59-6.05,8.99-5.07,1.52-9.03-.23-10.55-4.6l3.79-1.14c.86,2.29,3.32,2.99,5.75,2.26,2.63-.79,3.51-2.77,3.08-4.18-.53-1.77-2.65-2.29-5.5-1.78-6.68,1.2-9.36-.86-10.33-4.11-1.24-4.11,1.49-7.73,6.31-9.18,4.46-1.34,9.57-.32,11.36,4.39Z" style="fill:#fff; stroke-width:0px;"/><path d="M249.98,410.65l-3.88.59-1.47-9.68-10.9,1.66,1.47,9.68-3.88.59-3.52-23.2,3.88-.59,1.57,10.34,10.91-1.66-1.57-10.34,3.88-.59,3.52,23.2Z" style="fill:#fff; stroke-width:0px;"/><path d="M220.33,414.13l-3.85.16-.96-23.45,3.85-.16.97,23.45Z" style="fill:#fff; stroke-width:0px;"/><path d="M205.69,414.47l-10.04-.55c-4.12-.24-6.68-3.51-6.44-7.56.23-4.01,3.22-6.86,7.47-6.62l6.23.36.54-9.3,3.61.21-1.37,23.46ZM197.23,402.97c-2.31-.13-4.23,1.06-4.38,3.64-.15,2.61,1.61,4.05,3.92,4.19l5.49.32.46-7.83-5.49-.32Z" style="fill:#fff; stroke-width:0px;"/><path d="M164.77,409.45l-9.78-2.62c-3.98-1.08-5.89-4.55-4.94-8.05.81-2.98,3.08-4.55,4.95-4.67-1.83-1.19-2.16-3.19-1.63-6.04.59-3.21,1.05-4.23.65-5.87l4.01,1.09c.17,1.3-.2,2.52-.69,4.99-.64,3.23-.61,4.94,3.37,6.02l4.05,1.1,2.61-9.61,3.56.97-6.16,22.68ZM158.62,397.05c-2.23-.61-4.28-.12-4.95,2.37-.69,2.52.83,3.98,3.06,4.59l5.31,1.44,1.89-6.96-5.31-1.44Z" style="fill:#fff; stroke-width:0px;"/><path d="M138.6,401.43l-3.6-1.39,8.43-21.9,3.6,1.38-8.43,21.9Z" style="fill:#fff; stroke-width:0px;"/><path d="M124.26,389.42l8.21-15.95,3.13,1.61-10.73,20.87-4.03-2.07-1.23-21.44-8.46,16.46-3.13-1.61,10.75-20.9,4.31,2.25,1.19,20.78Z" style="fill:#fff; stroke-width:0px;"/><path d="M105.98,372.33c-4.08,5.57-10.83,7.05-16.15,3.19-4.72-3.42-5.5-8.63-3.28-12.9l3.42,2.48c-1.1,2.31-.66,5.53,2.14,7.56,3.45,2.5,7.83.96,10.55-2.78,2.66-3.66,2.63-8.2-.72-10.59-2.27-1.61-5.49-2.2-8.39.25l5.43,3.94-2.05,2.82-8.55-6.2,7.09-9.77,2.61,1.89-1.81,2.95c2.64-1.07,5.57-.43,7.85,1.22,5.05,3.66,5.89,10.44,1.86,15.93Z" style="fill:#fff; stroke-width:0px;"/></svg>