<svg xmlns="http://www.w3.org/2000/svg" xmlns:xlink="http://www.w3.org/1999/xlink" viewBox="0 0 159 138" width="159" height="138" preserveAspectRatio="xMidYMid meet" style="width: 100%; height: 100%; transform: translate3d(0px, 0px, 0px); content-visibility: visible;"><defs><clipPath id="__lottie_element_60"><rect width="159" height="138" x="0" y="0"></rect></clipPath><clipPath id="__lottie_element_62"><path fill="#ffffff" clip-rule="nonzero" d=" M78.5,7.5 C78.5,7.5 9.5,132.5 9.5,132.5 C9.5,132.5 151,132 151,132 C151,132 78.5,7.5 78.5,7.5" fill-opacity="1"></path></clipPath></defs><g clip-path="url(#__lottie_element_60)"><g clip-path="url(#__lottie_element_62)" transform="matrix(1,0,0,1,0,0)" opacity="1" style="display: block;"><rect width="159" height="138" fill="#000000"></rect></g><g transform="matrix(1,0,0,1,0,0)" opacity="1" style="display: block;"><g opacity="1" transform="matrix(1,0,0,1,79.09300231933594,68.52999877929688)"><path fill="#FFFFFF" fill-opacity="1" d=" M-78.84300231933594,68.27999877929688 C-78.84300231933594,68.27999877929688 78.84300231933594,68.27999877929688 78.84300231933594,68.27999877929688 C78.84300231933594,68.27999877929688 0.0010000000474974513,-68.27999877929688 0.0010000000474974513,-68.27999877929688 C0.0010000000474974513,-68.27999877929688 -78.84300231933594,68.27999877929688 -78.84300231933594,68.27999877929688z M-18.86400032043457,6.388000011444092 C-18.86400032043457,6.388000011444092 -18.77199935913086,5.916999816894531 -18.77199935913086,5.916999816894531 C-17.875,1.4149999618530273 -15.486000061035156,-1.49399995803833 -12.687000274658203,-1.49399995803833 C-9.076000213623047,-1.49399995803833 -6.249000072479248,3.3469998836517334 -6.249000072479248,9.527000427246094 C-6.249000072479248,15.706999778747559 -9.076000213623047,20.54800033569336 -12.687000274658203,20.54800033569336 C-15.486000061035156,20.54800033569336 -17.875,17.638999938964844 -18.77199935913086,13.13599967956543 C-18.77199935913086,13.13599967956543 -18.86400032043457,12.666000366210938 -18.86400032043457,12.666000366210938 C-18.86400032043457,12.666000366210938 -13.428000450134277,9.527000427246094 -13.428000450134277,9.527000427246094 C-13.428000450134277,9.527000427246094 -18.86400032043457,6.388000011444092 -18.86400032043457,6.388000011444092z M28.304000854492188,19.849000930786133 C28.304000854492188,19.849000930786133 28.304000854492188,15.274999618530273 28.304000854492188,15.274999618530273 C28.304000854492188,15.274999618530273 39.75899887084961,15.274999618530273 39.75899887084961,15.274999618530273 C39.75899887084961,15.274999618530273 39.75899887084961,19.849000930786133 39.75899887084961,19.849000930786133 C39.75899887084961,19.849000930786133 36.28300094604492,19.849000930786133 36.28300094604492,19.849000930786133 C35.56100082397461,39.185001373291016 19.42099952697754,54.80699920654297 -0.0010000000474974513,54.80699920654297 C-19.42099952697754,54.80699920654297 -35.56100082397461,39.185001373291016 -36.28300094604492,19.849000930786133 C-36.28300094604492,19.849000930786133 -39.75899887084961,19.849000930786133 -39.75899887084961,19.849000930786133 C-39.75899887084961,19.849000930786133 -39.75899887084961,15.274999618530273 -39.75899887084961,15.274999618530273 C-39.75899887084961,15.274999618530273 -28.304000854492188,15.274999618530273 -28.304000854492188,15.274999618530273 C-28.304000854492188,15.274999618530273 -28.304000854492188,19.849000930786133 -28.304000854492188,19.849000930786133 C-28.304000854492188,19.849000930786133 -31.704999923706055,19.849000930786133 -31.704999923706055,19.849000930786133 C-30.983999252319336,36.665000915527344 -16.905000686645508,50.233001708984375 -0.0010000000474974513,50.233001708984375 C16.90399932861328,50.233001708984375 30.985000610351562,36.665000915527344 31.704999923706055,19.849000930786133 C31.704999923706055,19.849000930786133 28.304000854492188,19.849000930786133 28.304000854492188,19.849000930786133z"></path></g></g><g transform="matrix(1,0,0,1,0,0)" opacity="1" style="display: block;"><g opacity="1" transform="matrix(1,0,0,1,79.09300231933594,68.52999877929688)"><path fill="rgb(0,0,0)" fill-opacity="1" d=" M6.339000225067139,6.388000011444092 C6.339000225067139,6.388000011444092 6.433000087738037,5.916999816894531 6.433000087738037,5.916999816894531 C7.328999996185303,1.4160000085830688 9.717000007629395,-1.49399995803833 12.517000198364258,-1.49399995803833 C16.12700080871582,-1.49399995803833 18.954999923706055,3.3469998836517334 18.954999923706055,9.527000427246094 C18.954999923706055,15.706999778747559 16.12700080871582,20.54800033569336 12.517000198364258,20.54800033569336 C9.717000007629395,20.54800033569336 7.328999996185303,17.638999938964844 6.433000087738037,13.13599967956543 C6.433000087738037,13.13599967956543 6.339000225067139,12.666000366210938 6.339000225067139,12.666000366210938 C6.339000225067139,12.666000366210938 11.774999618530273,9.527000427246094 11.774999618530273,9.527000427246094 C11.774999618530273,9.527000427246094 6.339000225067139,6.388000011444092 6.339000225067139,6.388000011444092z"></path></g></g><g transform="matrix(1,0,0,1,0,0)" opacity="1" style="display: none;"><g opacity="1" transform="matrix(1,0,0,1,79.09300231933594,68.52999877929688)"><path fill="rgb(0,0,0)" fill-opacity="1" d=" M6.339000225067139,6.388000011444092 C6.339000225067139,6.388000011444092 6.433000087738037,5.916999816894531 6.433000087738037,5.916999816894531 C7.328999996185303,1.4160000085830688 9.717000007629395,-1.49399995803833 12.517000198364258,-1.49399995803833 C16.12700080871582,-1.49399995803833 18.954999923706055,3.3469998836517334 18.954999923706055,9.527000427246094 C18.954999923706055,15.706999778747559 16.12700080871582,20.54800033569336 12.517000198364258,20.54800033569336 C9.717000007629395,20.54800033569336 7.328999996185303,17.638999938964844 6.433000087738037,13.13599967956543 C6.433000087738037,13.13599967956543 6.339000225067139,12.666000366210938 6.339000225067139,12.666000366210938 C6.339000225067139,12.666000366210938 11.774999618530273,9.527000427246094 11.774999618530273,9.527000427246094 C11.774999618530273,9.527000427246094 6.339000225067139,6.388000011444092 6.339000225067139,6.388000011444092z"></path></g></g><g transform="matrix(1,0,0,1,79.5,69)" opacity="1" style="display: none;"><g opacity="1" transform="matrix(1,0,0,1,12,9.375)"><path fill="rgb(0,0,0)" fill-opacity="1" d=" M6.625,-1.25 C6.625,-1.25 6.625,1.25 6.625,1.25 C6.625,1.25 -6.625,1.25 -6.625,1.25 C-6.625,1.25 -6.625,-1.25 -6.625,-1.25 C-6.625,-1.25 6.625,-1.25 6.625,-1.25z"></path></g></g></g></svg>